<svg width="1200" height="400" viewBox="0 0 1200 400" fill="none" xmlns="http://www.w3.org/2000/svg">
  <g opacity="0.18" fill="#FFFFFF">
    <circle cx="80" cy="80" r="4"/>
    <circle cx="160" cy="120" r="4"/>
    <circle cx="240" cy="70" r="4"/>
    <circle cx="320" cy="150" r="4"/>
    <circle cx="420" cy="90" r="4"/>
    <circle cx="520" cy="130" r="4"/>
    <circle cx="640" cy="80" r="4"/>
    <circle cx="740" cy="120" r="4"/>
    <circle cx="840" cy="90" r="4"/>
    <circle cx="940" cy="140" r="4"/>
    <circle cx="1040" cy="100" r="4"/>
    <circle cx="1120" cy="160" r="4"/>
    <circle cx="120" cy="240" r="4"/>
    <circle cx="220" cy="280" r="4"/>
    <circle cx="320" cy="240" r="4"/>
    <circle cx="420" cy="300" r="4"/>
    <circle cx="520" cy="250" r="4"/>
    <circle cx="620" cy="300" r="4"/>
    <circle cx="720" cy="240" r="4"/>
    <circle cx="820" cy="280" r="4"/>
    <circle cx="920" cy="250" r="4"/>
    <circle cx="1020" cy="300" r="4"/>
    <circle cx="1120" cy="240" r="4"/>
  </g>
  <g opacity="0.12" stroke="#FFFFFF" stroke-width="2">
    <path d="M120 200H1080"/>
    <path d="M200 60V340"/>
    <path d="M600 60V340"/>
    <path d="M1000 60V340"/>
  </g>
</svg>
