<svg width="760" height="320" viewBox="0 0 760 320" fill="none" xmlns="http://www.w3.org/2000/svg">
  <defs>
    <linearGradient id="panelBg" x1="0" y1="0" x2="760" y2="320" gradientUnits="userSpaceOnUse">
      <stop stop-color="#EAF4FF"/>
      <stop offset="1" stop-color="#F8FCFF"/>
    </linearGradient>
    <linearGradient id="chartArea" x1="0" y1="84" x2="0" y2="220" gradientUnits="userSpaceOnUse">
      <stop stop-color="#42A5F5" stop-opacity="0.3"/>
      <stop offset="1" stop-color="#42A5F5" stop-opacity="0"/>
    </linearGradient>
    <linearGradient id="cardBg" x1="0" y1="0" x2="0" y2="56" gradientUnits="userSpaceOnUse">
      <stop stop-color="#FFFFFF"/>
      <stop offset="1" stop-color="#F6FBFF"/>
    </linearGradient>
    <clipPath id="chartClip">
      <rect x="56" y="84" width="648" height="138" rx="14"/>
    </clipPath>
  </defs>

  <rect x="8" y="8" width="744" height="304" rx="18" fill="url(#panelBg)"/>
  <rect x="8.5" y="8.5" width="743" height="303" rx="17.5" stroke="#D8E5F4"/>

  <circle cx="670" cy="44" r="20" fill="#1E88E5" opacity="0.14"/>
  <circle cx="706" cy="44" r="10" fill="#00BFA5" opacity="0.25"/>
  <circle cx="40" cy="276" r="28" fill="#0D47A1" opacity="0.08"/>

  <rect x="56" y="36" width="160" height="16" rx="8" fill="#0D47A1" opacity="0.22"/>
  <rect x="56" y="58" width="260" height="10" rx="5" fill="#1E88E5" opacity="0.18"/>

  <rect x="56" y="84" width="648" height="138" rx="14" fill="#FFFFFF" opacity="0.78"/>

  <g clip-path="url(#chartClip)" stroke="#D9E8F7" stroke-width="1">
    <line x1="56" y1="110" x2="704" y2="110"/>
    <line x1="56" y1="138" x2="704" y2="138"/>
    <line x1="56" y1="166" x2="704" y2="166"/>
    <line x1="56" y1="194" x2="704" y2="194"/>
    <line x1="120" y1="84" x2="120" y2="222"/>
    <line x1="192" y1="84" x2="192" y2="222"/>
    <line x1="264" y1="84" x2="264" y2="222"/>
    <line x1="336" y1="84" x2="336" y2="222"/>
    <line x1="408" y1="84" x2="408" y2="222"/>
    <line x1="480" y1="84" x2="480" y2="222"/>
    <line x1="552" y1="84" x2="552" y2="222"/>
    <line x1="624" y1="84" x2="624" y2="222"/>
  </g>

  <path d="M72 198L140 186L210 192L278 170L350 174L420 142L492 150L562 118L636 106L688 96V222H72V198Z" fill="url(#chartArea)"/>
  <path d="M72 198L140 186L210 192L278 170L350 174L420 142L492 150L562 118L636 106L688 96" stroke="#1E88E5" stroke-width="4" stroke-linecap="round" stroke-linejoin="round"/>
  <path d="M72 210L140 206L210 198L278 202L350 194L420 188L492 174L562 170L636 152L688 144" stroke="#00BFA5" stroke-width="3" stroke-linecap="round" stroke-linejoin="round" opacity="0.95"/>

  <circle cx="278" cy="170" r="5" fill="#1E88E5"/>
  <circle cx="420" cy="142" r="5" fill="#1E88E5"/>
  <circle cx="562" cy="118" r="5" fill="#1E88E5"/>
  <circle cx="636" cy="106" r="5" fill="#1E88E5"/>

  <rect x="56" y="240" width="206" height="56" rx="12" fill="url(#cardBg)" stroke="#DDEAF8"/>
  <rect x="278" y="240" width="206" height="56" rx="12" fill="url(#cardBg)" stroke="#DDEAF8"/>
  <rect x="500" y="240" width="204" height="56" rx="12" fill="url(#cardBg)" stroke="#DDEAF8"/>

  <rect x="74" y="257" width="10" height="22" rx="5" fill="#00BFA5"/>
  <rect x="96" y="262" width="74" height="8" rx="4" fill="#0D47A1" opacity="0.28"/>
  <rect x="96" y="274" width="52" height="6" rx="3" fill="#1E88E5" opacity="0.24"/>

  <rect x="296" y="257" width="10" height="22" rx="5" fill="#1E88E5"/>
  <rect x="318" y="262" width="74" height="8" rx="4" fill="#0D47A1" opacity="0.28"/>
  <rect x="318" y="274" width="52" height="6" rx="3" fill="#1E88E5" opacity="0.24"/>

  <rect x="518" y="257" width="10" height="22" rx="5" fill="#0D47A1"/>
  <rect x="540" y="262" width="74" height="8" rx="4" fill="#0D47A1" opacity="0.28"/>
  <rect x="540" y="274" width="52" height="6" rx="3" fill="#1E88E5" opacity="0.24"/>
</svg>
